<svg id="Layer_1" data-name="Layer 1" xmlns="http://www.w3.org/2000/svg" viewBox="0 0 64 64"><defs><style>.cls-1{fill:#fff;}</style></defs><title>Untitled-3 64px x 64px</title><path class="cls-1" d="M36,23a4.2,4.2,0,0,1-3-1.25l-3.19-3.19,1.35.28a6.2,6.2,0,0,0,1.14.11c1.52,0,2.24-.21,4.13-1.58s7.62-6,7.68-6a2.63,2.63,0,0,1,1.59-.54,2.6,2.6,0,0,1,1.58,4.66l-8.68,6.64A4.22,4.22,0,0,1,36,23"/><path class="cls-1" d="M30.22,17.88a2.65,2.65,0,0,1-1.27-.3,10.43,10.43,0,0,1-2.38-2.19,2.69,2.69,0,0,1,.09-3.7,2.6,2.6,0,0,1,3.67,0l4.46,4.46-.46.27a11.4,11.4,0,0,1-3.9,1.45h-.21"/><path class="cls-1" d="M45.6,43a2.58,2.58,0,0,1-2.06-1L36.9,33.3a4.25,4.25,0,0,1,.37-5.6l3.19-3.2-.27,1.36A5.45,5.45,0,0,0,40.07,27c0,1.52.21,2.24,1.58,4.13s6,7.62,6,7.68A2.61,2.61,0,0,1,45.6,43"/><path class="cls-1" d="M42.62,29.08a11.62,11.62,0,0,1-1.45-3.9,2.67,2.67,0,0,1,.29-1.47,10.47,10.47,0,0,1,2.19-2.39,2.7,2.7,0,0,1,1.81-.7,2.66,2.66,0,0,1,1.89.79,2.6,2.6,0,0,1,0,3.67l-4.46,4.46Z"/><path class="cls-1" d="M18.35,43a2.6,2.6,0,0,1-1.58-4.66l8.68-6.64a4.25,4.25,0,0,1,5.6.37l3.19,3.19L32.89,35a5.45,5.45,0,0,0-1.14-.12c-1.52,0-2.24.21-4.13,1.58s-7.62,6-7.68,6a2.63,2.63,0,0,1-1.59.54"/><path class="cls-1" d="M35.5,42.92a2.57,2.57,0,0,1-1.83-.76l-4.46-4.45.46-.28A11.62,11.62,0,0,1,33.57,36h.21a2.77,2.77,0,0,1,1.27.3,10.66,10.66,0,0,1,2.38,2.19,2.69,2.69,0,0,1-.09,3.7,2.58,2.58,0,0,1-1.84.76"/><path class="cls-1" d="M23.81,28a5.38,5.38,0,0,0,.12-1.14c0-1.52-.21-2.24-1.58-4.13s-6-7.62-6-7.68a2.6,2.6,0,1,1,4.12-3.17l6.64,8.68a4.25,4.25,0,0,1-.37,5.6l-3.19,3.2Z"/><path class="cls-1" d="M18.54,33.23a2.66,2.66,0,0,1-1.89-.79,2.6,2.6,0,0,1,0-3.67l4.46-4.46.27.46a11.72,11.72,0,0,1,1.45,3.9,2.72,2.72,0,0,1-.29,1.48,10.66,10.66,0,0,1-2.19,2.38,2.72,2.72,0,0,1-1.81.7"/><path class="cls-1" d="M2.23,51.61c0-.27,0-.53,0-.81v-4Q1.7,46.86,1,47l-.4,0L.39,47V46.2H5.64V47c-.35-.06-.73-.1-1.12-.14-.18,0-.42,0-.75-.05v4c0,.51,0,1,0,1.53l.05.7H2.15c0-.44.06-.91.08-1.42"/><path class="cls-1" d="M9.22,46.13l1.86,4.67c.11.29.23.56.34.8l.38.81c.12.25.23.46.32.62h-2l0-.11a.11.11,0,0,0,0-.05l0-.06c-.07-.28-.12-.48-.15-.58-.14-.45-.25-.81-.34-1.07q0-.15-.21-.57l-.07-.16-.14,0-.41,0H7.9c-.34,0-.61,0-.82,0-.21.53-.44,1.14-.68,1.83l-.18.54a1.67,1.67,0,0,0-.07.24H5c.21-.4.44-.87.68-1.4.1-.22.22-.48.35-.78L8,46.24ZM7.31,49.78H9.1L8.2,47.5Z"/><path class="cls-1" d="M17.86,46.19c-.16.23-.4.65-.74,1.25l-.52,1-1.09,2.1c-.21.35-.4.71-.6,1.08s-.28.52-.42.81c1.08,0,2-.06,2.69-.13l.88-.09V53H12.25c.26-.39.54-.85.84-1.37.2-.34.37-.63.5-.87L15,48.43c.31-.52.61-1.06.91-1.63-.94,0-1.78.07-2.52.13a7.26,7.26,0,0,0-.83.09v-.83Z"/><path class="cls-1" d="M22.56,46.12l1.86,4.67c.11.29.23.56.34.8s.23.51.38.81.23.46.32.62h-2l0-.11s0,0,0,0l0-.07-.15-.58c-.14-.45-.25-.8-.34-1.06,0-.11-.1-.3-.21-.58l-.07-.16h-.14c-.13,0-.27,0-.41,0h-.88c-.34,0-.61,0-.83,0-.2.54-.43,1.15-.67,1.84l-.18.54a1.64,1.64,0,0,0-.07.23H18.35c.21-.41.43-.88.68-1.41.1-.22.22-.48.34-.78l1.95-4.61Zm-1.91,3.65h1.79l-.9-2.27Z"/><path class="cls-1" d="M34.44,47.22a1.58,1.58,0,0,0-.41-.29,4.18,4.18,0,0,0-.58-.22,3,3,0,0,0-.8-.09,2.13,2.13,0,0,0-.85.18,2.23,2.23,0,0,0-.72.55,2.9,2.9,0,0,0-.53.95,4.27,4.27,0,0,0-.19,1.29,4.14,4.14,0,0,0,.15,1.14,2.64,2.64,0,0,0,.42.93,2,2,0,0,0,.69.64,1.68,1.68,0,0,0,.9.24,3.12,3.12,0,0,0,1.09-.2c0-.18-.07-.5-.1-1s-.06-1-.06-1.37l-.5,0-.14,0v-.7l2.15.09v2.11c0,.29,0,.57,0,.82l0,.11a1.68,1.68,0,0,0,0,.2,9,9,0,0,1-1.53.38,6.93,6.93,0,0,1-.88.07,4.75,4.75,0,0,1-1.6-.25,3.44,3.44,0,0,1-1.24-.71,3.11,3.11,0,0,1-.8-1.12,3.75,3.75,0,0,1-.28-1.45A4,4,0,0,1,29,48a3.21,3.21,0,0,1,.85-1.16,3.6,3.6,0,0,1,1.21-.64A5.11,5.11,0,0,1,32.56,46a5.75,5.75,0,0,1,1.56.19,3,3,0,0,1,.48.19Z"/><path class="cls-1" d="M42.41,53a.9.9,0,0,1-.25.08,2,2,0,0,1-.85,0c-.77-.14-1.39-.87-1.86-2.17a4.16,4.16,0,0,0-.41-.79,1.85,1.85,0,0,0-.38-.4.82.82,0,0,0-.38-.16L38.15,49h.15a1.35,1.35,0,0,0,.46-.06.9.9,0,0,0,.5-.31,1.16,1.16,0,0,0,.24-.77,1.06,1.06,0,0,0-.31-.86.84.84,0,0,0-.34-.17,2.32,2.32,0,0,0-.51-.07h-.5v4c0,.53,0,1,.06,1.52,0,.19,0,.42.07.71H36.22l0-.23c0-.35,0-.81.06-1.35,0-.29,0-.58,0-.86V48.41q0-.73-.06-1.53c0-.31,0-.55-.07-.72H37l.66,0,.69,0,.52,0a4.36,4.36,0,0,1,.69.09,1.58,1.58,0,0,1,1,.5,1.55,1.55,0,0,1,.34,1,1.4,1.4,0,0,1-.43,1.08,2.06,2.06,0,0,1-1.1.48,1.68,1.68,0,0,1,.44.16,2.59,2.59,0,0,1,.46.3,2.45,2.45,0,0,1,.71,1,8.94,8.94,0,0,0,.73,1.4,2.52,2.52,0,0,0,.5.58l.14.09,0,0Z"/><path class="cls-1" d="M44.55,52.9a3.72,3.72,0,0,1-1.25-.7,3.2,3.2,0,0,1-.82-1.13,3.42,3.42,0,0,1-.29-1.45,3.69,3.69,0,0,1,.57-2.07,3.26,3.26,0,0,1,1.42-1.18A4.48,4.48,0,0,1,46,46a4.86,4.86,0,0,1,1.56.24,3.74,3.74,0,0,1,1.25.71,3.38,3.38,0,0,1,.82,1.12,4,4,0,0,1-.28,3.52A3.12,3.12,0,0,1,48,52.77a4.36,4.36,0,0,1-1.86.38,4.64,4.64,0,0,1-1.56-.25M44,50.73a3.3,3.3,0,0,0,.42.93,2.1,2.1,0,0,0,.68.65,1.83,1.83,0,0,0,.9.23,2.15,2.15,0,0,0,1.58-.73,2.84,2.84,0,0,0,.54-1,4,4,0,0,0,.19-1.3,4.24,4.24,0,0,0-.14-1.14,3.24,3.24,0,0,0-.42-.94,2.1,2.1,0,0,0-.69-.64,1.84,1.84,0,0,0-.91-.23,2.1,2.1,0,0,0-.84.19,2,2,0,0,0-.73.54,2.84,2.84,0,0,0-.54.95,4.29,4.29,0,0,0-.19,1.3A4.24,4.24,0,0,0,44,50.73"/><path class="cls-1" d="M52.43,48.91v.18a9,9,0,0,0,.11,1.54A2.72,2.72,0,0,0,53.1,52a1.68,1.68,0,0,0,1.32.55,1.73,1.73,0,0,0,1.49-.69,3.79,3.79,0,0,0,.55-2.28V48.39c0-.44,0-1-.05-1.53,0-.3,0-.54,0-.71h1c0,.44-.07.91-.08,1.43,0,.27,0,.54,0,.81v1.17a4,4,0,0,1-.8,2.75,2.85,2.85,0,0,1-2.24.84,4.33,4.33,0,0,1-2.11-.44,2.2,2.2,0,0,1-1-1.16,4.75,4.75,0,0,1-.26-1.65V48.41c0-.38,0-.89,0-1.54l-.05-.72h1.72l0,.64v.54c0,.17,0,.32,0,.44Z"/><path class="cls-1" d="M60.69,49.43h.17a1.17,1.17,0,0,0,.44,0,1.07,1.07,0,0,0,.59-.38,1.6,1.6,0,0,0,.29-1,1.35,1.35,0,0,0-.33-1,1.46,1.46,0,0,0-.33-.22,1.37,1.37,0,0,0-.4-.09H60.4v4c0,.53,0,1,.06,1.52,0,.18,0,.42.07.7H58.77c0-.45.06-.92.08-1.43,0-.27,0-.53,0-.8V48.39q0-.72-.06-1.53c0-.25,0-.49-.06-.71h.84c.33,0,.69,0,1.07,0l.77,0a4.08,4.08,0,0,1,1,.11,1.76,1.76,0,0,1,.74.39,1.78,1.78,0,0,1,.49,1.36,1.9,1.9,0,0,1-.73,1.6,2.35,2.35,0,0,1-.83.38A4,4,0,0,1,61,50h-.1Z"/></svg>